HIERARCHY
ROOT RootJoint
{
    OFFSET   0.000000   0.000000   0.000000
    CHANNELS 6 Xposition Yposition Zposition Xrotation Yrotation Zrotation
    JOINT pelvis_lowerback
    {
        OFFSET   0.000000   0.093605   0.000000
        CHANNELS 3 Xrotation Yrotation Zrotation
        JOINT lowerback_torso
        {
            OFFSET   0.000000   0.100000   0.000000
            CHANNELS 3 Xrotation Yrotation Zrotation
            JOINT torso_head
            {
                OFFSET   0.000000   0.282350   0.000000
                CHANNELS 3 Xrotation Yrotation Zrotation
                End Site
                {
                    OFFSET   0.000000   0.192650   0.000000
                }
            }
            JOINT rTorso_Clavicle
            {
                OFFSET  -0.001000   0.157500   0.000000
                CHANNELS 3 Xrotation Yrotation Zrotation
                JOINT rShoulder
                {
                    OFFSET  -0.117647   0.000000   0.000000
                    CHANNELS 3 Xrotation Yrotation Zrotation
                    JOINT rElbow
                    {
                        OFFSET  -0.245000   0.000000   0.000000
                        CHANNELS 3 Xrotation Yrotation Zrotation
                        JOINT rWrist
                        {
                            OFFSET  -0.240000   0.000000   0.000000
                            CHANNELS 3 Xrotation Yrotation Zrotation
                            End Site
                            {
                                OFFSET  -0.116353  -0.002500   0.000000
                            }
                        }
                    }
                }
            }
            JOINT lTorso_Clavicle
            {
                OFFSET   0.001000   0.157500   0.000000
                CHANNELS 3 Xrotation Yrotation Zrotation
                JOINT lShoulder
                {
                    OFFSET   0.117647   0.000000   0.000000
                    CHANNELS 3 Xrotation Yrotation Zrotation
                    JOINT lElbow
                    {
                        OFFSET   0.245000   0.000000   0.000000
                        CHANNELS 3 Xrotation Yrotation Zrotation
                        JOINT lWrist
                        {
                            OFFSET   0.240000   0.000000   0.000000
                            CHANNELS 3 Xrotation Yrotation Zrotation
                            End Site
                            {
                                OFFSET   0.116353  -0.002500   0.000000
                            }
                        }
                    }
                }
            }
        }
    }
    JOINT rHip
    {
        OFFSET  -0.100000  -0.051395   0.000000
        CHANNELS 3 Xrotation Yrotation Zrotation
        JOINT rKnee
        {
            OFFSET   0.000000  -0.410000   0.000000
            CHANNELS 3 Xrotation Yrotation Zrotation
            JOINT rAnkle
            {
                OFFSET   0.000000  -0.390000   0.000000
                CHANNELS 3 Xrotation Yrotation Zrotation
                JOINT rToeJoint
                {
                    OFFSET   0.000000  -0.050000   0.130000
                    CHANNELS 3 Xrotation Yrotation Zrotation
                    End Site
                    {
                        OFFSET  -0.010000   0.002000   0.060000
                    }
                }
            }
        }
    }
    JOINT lHip
    {
        OFFSET   0.100000  -0.051395   0.000000
        CHANNELS 3 Xrotation Yrotation Zrotation
        JOINT lKnee
        {
            OFFSET   0.000000  -0.410000   0.000000
            CHANNELS 3 Xrotation Yrotation Zrotation
            JOINT lAnkle
            {
                OFFSET   0.000000  -0.390000   0.000000
                CHANNELS 3 Xrotation Yrotation Zrotation
                JOINT lToeJoint
                {
                    OFFSET   0.000000  -0.050000   0.130000
                    CHANNELS 3 Xrotation Yrotation Zrotation
                    End Site
                    {
                        OFFSET   0.010000   0.002000   0.060000
                    }
                }
            }
        }
    }
}
MOTION
Frames: 12
Frame Time:   0.008333
 -2.376719   0.925631   3.975860   0.000000   0.000000   0.000000   0.000000   0.000000   0.000000   0.000000   0.000000   0.000000   0.000000   0.000000   0.000000   0.000000   0.000000   0.000000   0.000000   0.000000   0.000000   0.000000   0.000000   0.000000   0.000000   0.000000   0.000000   0.000000   0.000000   0.000000   0.000000   0.000000   0.000000   0.000000   0.000000   0.000000   0.000000   0.000000   0.000000   0.000000   0.000000   0.000000   0.000000   0.000000   0.000000   0.000000   0.000000   0.000000   0.000000   0.000000   0.000000   0.000000   0.000000   0.000000   0.000000   0.000000   0.000000   0.000000   0.000000   0.000000   0.000000   0.000000   0.000000
 -2.376232   0.925963   3.975631  -0.375073   0.787565   0.059130   0.219244  -0.195041  -0.150372   0.401547   0.065773   0.308666   0.112546   0.526610   0.006370   0.212469  -0.852398  -0.225198   0.354067  -0.440819   2.246938   0.005860   0.301324  -0.002128   0.242383   0.478495  -2.542955  -0.565169  -0.145115  -0.340508  -0.086853  -0.636874  -2.118208   0.051155  -2.624712  -0.008091   0.239962   1.365323   2.762442  -0.850805  -0.366625  -0.099709   2.870624   0.001099   0.010488  -2.831903  -0.134557   0.564185  -0.678457   0.003223  -0.001708   0.058558  -0.392634  -0.184921   2.437207   0.002893   0.008333  -3.812417  -0.358222  -0.074280   0.249870   0.000400   0.000085
 -2.375533   0.926486   3.975855  -0.884555   2.052546   0.124850   0.406988  -0.605045  -0.250509   0.883111  -0.139913   0.633178   0.284047   1.064230   0.048365   0.425974  -1.846571   0.175626   0.730322  -1.016197   4.984257   0.011800   0.541419  -0.003192   0.525640   0.879036  -4.439993  -1.109586  -0.494901  -1.397435  -0.217914  -1.464903  -4.676446   0.115747  -5.232735  -0.016262   0.474341   1.717190   4.744014  -1.877686  -0.712315  -0.218005   5.841552   0.003730   0.031923  -5.475061  -0.286847   1.074248  -1.402180   0.005917  -0.006200   0.625456  -0.773973  -0.425501   5.106748   0.008564   0.026810  -7.470660  -0.703203  -0.183493   0.305418   0.000442   0.000331
 -2.374727   0.926777   3.976389  -1.385023   3.578690   0.192845   0.519587  -1.188896  -0.313761   1.315677  -0.554386   0.959222   0.448972   1.572072   0.097242   0.638940  -2.885405   1.032881   1.118685  -1.623319   7.921235   0.016304   0.734683  -0.003479   0.800395   1.120258  -5.542794  -1.625959  -0.939141  -2.892512  -0.389386  -2.335760  -7.444739   0.176081  -7.714081  -0.024312   0.708748   1.664065   5.874260  -3.130157  -1.022121  -0.347420   8.589840   0.007921   0.054066  -7.940055  -0.450073   1.538774  -2.065750   0.007824  -0.011058   1.569981  -1.127088  -0.655071   7.763991   0.016140   0.047657 -10.878992  -1.017043  -0.310962   0.363175   0.000491   0.000705
 -2.373857   0.926521   3.977104  -1.850667   5.227628   0.264740   0.572258  -1.893616  -0.354887   1.687226  -1.110670   1.280431   0.594712   2.047004   0.144891   0.856025  -3.936047   2.174644   1.519430  -2.230463  10.917493   0.019131   0.892378  -0.003330   1.055994   1.233541  -6.046141  -2.112148  -1.420544  -4.635463  -0.594706  -3.198210 -10.288226   0.224764 -10.051565  -0.030924   0.932988   1.453733   6.379881  -4.604883  -1.299643  -0.500374  11.076829   0.012926   0.071961 -10.242623  -0.621278   1.963908  -2.685134   0.009180  -0.015364   2.820777  -1.460664  -0.840382  10.366965   0.024694   0.066388 -14.056069  -1.301287  -0.447660   0.424628   0.000543   0.001129
 -2.372946   0.925479   3.977903  -2.280701   6.909880   0.341311   0.584086  -2.678311  -0.382513   2.010568  -1.761760   1.592793   0.722069   2.490393   0.189036   1.081198  -4.979571   3.473560   1.931999  -2.822776  13.887533   0.020465   1.022038  -0.002963   1.291357   1.251262  -6.145109  -2.568180  -1.910917  -6.496571  -0.827134  -4.030001 -13.117710   0.259661 -12.244467  -0.035185   1.142289   1.182639   6.471136  -6.277209  -1.546867  -0.687775  13.312210   0.017869   0.084087 -12.393694  -0.797832   2.354165  -3.262651   0.010096  -0.018694   4.323794  -1.781937  -0.967354  12.904455   0.033427   0.080963 -17.018143  -1.558530  -0.587808   0.487936   0.000592   0.001532
 -2.372006   0.923475   3.978712  -2.677924   8.562000   0.421218   0.570839  -3.512813  -0.400527   2.299422  -2.474534   1.895400   0.834047   2.904256   0.229017   1.316738  -6.001791   4.842199   2.353971  -3.390498  16.775908   0.020640   1.129457  -0.002507   1.508573   1.199240  -5.987191  -2.996669  -2.397414  -8.387365  -1.081221  -4.822532 -15.874973   0.281410 -14.298406  -0.036734   1.336759   0.887145   6.306206  -8.117361  -1.764310  -0.912840  15.314433   0.022044   0.090493 -14.402834  -0.977244   2.713242  -3.798107   0.010644  -0.020898   6.031184  -2.095026  -1.034912  15.369594   0.041707   0.090594 -19.779995  -1.791450  -0.727567   0.552068   0.000641   0.001869
 -2.371652   0.919814   3.978589  -2.703823   9.682676   0.342462   0.496771  -3.839992  -0.281012   2.469551  -3.171630   2.034971   0.746414   3.073956   0.294766   1.574463  -6.848979   5.780886   3.007429  -4.173668  19.405270   0.026050   1.428424  -0.003194   1.624600   1.140536  -4.775874  -3.185778  -2.690670  -9.279671  -1.355212  -5.786210 -18.746688   0.299177 -16.711000  -0.029862   1.439033   0.630080   5.426705 -11.010618  -2.167520  -1.090008  18.574829   0.027503   0.089467 -16.075822  -1.392420   2.981514  -3.832056   0.008575  -0.016826   7.952531  -2.277013  -0.762430  15.659864   0.034170   0.074726 -21.756455  -2.137771  -1.083939   1.064171   0.001959   0.004149
 -2.371652   0.914758   3.977932  -2.688881  10.841243   0.244570   0.540510  -4.205518  -0.187097   2.667560  -3.877724   2.153686   0.658220   3.223582   0.343846   1.829159  -7.642079   6.462051   3.652101  -4.891930  21.734355   0.027938   1.701592  -0.003785   1.737249   1.072443  -3.678780  -3.400448  -3.020417  -9.851694  -1.673752  -6.734823 -21.265937   0.299508 -19.002306  -0.020800   1.572517   0.147984   4.700780 -13.952822  -2.572397  -1.337155  21.694657   0.032472   0.087883 -17.621747  -1.796835   3.219171  -3.817564   0.006781  -0.013440   9.767221  -2.466530  -0.296489  15.652471   0.027083   0.059835 -23.615563  -2.449853  -1.427768   1.546846   0.002182   0.005901
 -2.371863   0.908475   3.976977  -2.674371  11.988496   0.158172   0.670519  -4.581817  -0.122118   2.910394  -4.573988   2.252182   0.589857   3.362871   0.383127   2.076595  -8.383671   6.955548   4.279423  -5.545681  23.812689   0.027734   1.953514  -0.004197   1.842934   0.987286  -2.825052  -3.642313  -3.373070 -10.220954  -2.030730  -7.648218 -23.504921   0.289691 -21.160605  -0.011574   1.720015  -0.433721   4.245379 -16.825764  -2.925152  -1.664661  24.572904   0.036543   0.085196 -19.063335  -2.181211   3.430482  -3.800557   0.005350  -0.010714  11.467825  -2.630993   0.280101  15.590596   0.021402   0.047455 -25.356193  -2.727068  -1.755872   1.984868   0.001812   0.007088
 -2.372212   0.901094   3.975884  -2.667977  13.074973   0.088135   0.857174  -4.946559  -0.078038   3.185219  -5.240570   2.330305   0.539384   3.493049   0.416139   2.316277  -9.077344   7.307780   4.886295  -6.142263  25.679271   0.026305   2.186146  -0.004392   1.942472   0.887042  -2.182003  -3.899829  -3.726077 -10.456813  -2.413422  -8.511381 -25.522499   0.274402 -23.187221  -0.003246   1.872718  -1.059182   4.000230 -19.599002  -3.223220  -2.051394  27.222796   0.039183   0.080681 -20.408729  -2.545345   3.619029  -3.784812   0.004218  -0.008534  13.068021  -2.767466   0.918413  15.517359   0.016946   0.037455 -26.983514  -2.974069  -2.067366   2.386153   0.001198   0.007699
 -2.372663   0.892714   3.974758  -2.671332  14.075552   0.034077   1.078877  -5.289650  -0.050401   3.478857  -5.867261   2.388744   0.502271   3.614677   0.445046   2.548330  -9.727455   7.553373   5.471210  -6.688901  27.365189   0.024206   2.400625  -0.004379   2.036477   0.772171  -1.704307  -4.161818  -4.064309 -10.605090  -2.809870  -9.315285 -27.360271   0.256477 -25.085393   0.003720   2.025709  -1.694209   3.899805 -22.257010  -3.471852  -2.471006  29.666603   0.040151   0.074558 -21.664482  -2.889650   3.787794  -3.770875   0.003324  -0.006797  14.576390  -2.877747   1.585790  15.444082   0.013462   0.029476 -28.504250  -3.195038  -2.362196   2.754469   0.000539   0.007810
